<svg width="39" height="39" viewBox="0 0 39 39" fill="none" xmlns="http://www.w3.org/2000/svg">
<path d="M28.5124 18.131C28.8049 18.5696 29.0973 19.0083 29.2435 19.7394H24.5646C24.5646 19.5932 24.5646 19.3007 24.7108 19.0083C24.857 18.7159 24.857 18.5696 25.1494 18.2772C25.2956 17.9848 25.5881 17.8386 25.8805 17.6923C26.173 17.5461 26.6116 17.3999 27.0503 17.3999C27.6351 17.5461 28.22 17.6923 28.5124 18.131ZM15.0604 17.1075C15.3528 16.815 15.6453 16.3764 15.6453 15.7915C15.6453 15.4991 15.6453 15.2066 15.4991 14.9142C15.3529 14.768 15.2066 14.4755 15.0604 14.4755C14.9142 14.3293 14.6218 14.3293 14.3293 14.1831H10.5277V17.5461H13.7445C14.1831 17.5461 14.6218 17.3999 15.0604 17.1075ZM13.8907 19.5932H10.5277V23.541H13.8907C14.1831 23.541 14.4755 23.541 14.768 23.3948C15.0604 23.3948 15.3529 23.2486 15.4991 23.1024C15.6453 22.9562 15.9377 22.8099 16.0839 22.5175C16.2302 22.2251 16.2302 21.9326 16.2302 21.6402C16.2302 20.9091 16.0839 20.3242 15.6453 20.0318C15.2066 19.7394 14.6218 19.5932 13.8907 19.5932ZM38.0166 7.16466V30.8519C38.0166 34.7998 34.7998 38.0166 30.8519 38.0166H7.16466C3.21679 38.0166 0 34.7998 0 30.8519V7.16466C0 3.21679 3.21679 0 7.16466 0H30.8519C34.7998 0 38.0166 3.21679 38.0166 7.16466ZM23.9797 14.0369H29.8284V12.5747H23.9797V14.0369ZM19.3007 21.9326C19.3007 21.0553 19.1545 20.3242 18.7159 19.5932C18.2772 19.0083 17.6923 18.5696 16.815 18.2772C17.3999 17.9848 17.9848 17.5461 18.2772 17.1075C18.5696 16.6688 18.7159 16.0839 18.7159 15.3528C18.7159 14.6218 18.5696 14.1831 18.4234 13.5982C18.131 13.1596 17.8386 12.7209 17.5461 12.5747C17.1075 12.2823 16.6688 12.1361 16.0839 11.9898C15.3528 11.6974 14.768 11.6974 14.0369 11.6974H7.31088V26.0267H14.3293C14.9142 26.0267 15.6453 25.8805 16.2302 25.7343C16.815 25.5881 17.3999 25.2956 17.8385 25.0032C18.2772 24.7108 18.7159 24.2721 19.0083 23.6873C19.1545 23.2486 19.3007 22.6637 19.3007 21.9326ZM24.5646 21.494H32.0217C32.0217 20.6167 32.0217 19.8856 31.8754 19.1545C31.7292 18.4234 31.4368 17.6923 30.9981 17.2537C30.5595 16.6688 29.9746 16.2302 29.3897 15.9377C28.6587 15.6453 27.9276 15.3528 27.0503 15.3528C26.3192 15.3528 25.5881 15.4991 24.857 15.7915C24.2721 16.0839 23.6873 16.5226 23.1024 16.9612C22.6637 17.3999 22.2251 17.9848 22.0789 18.7159C21.7864 19.4469 21.6402 20.178 21.6402 20.9091C21.6402 21.6402 21.7864 22.5175 22.0789 23.1024C22.3713 23.8335 22.6637 24.4183 23.1024 24.857C23.541 25.2956 24.1259 25.7343 24.7108 26.0267C25.4419 26.3192 26.173 26.4654 26.904 26.4654C28.0738 26.4654 29.0973 26.173 29.9746 25.5881C30.8519 25.0032 31.4368 24.1259 31.8754 22.9562H29.3897C29.2435 23.2486 29.0973 23.541 28.6587 23.8335C28.22 24.1259 27.7813 24.2721 27.1965 24.2721C26.4654 24.2721 25.7343 24.1259 25.2956 23.6873C24.857 23.1024 24.5646 22.3713 24.5646 21.494Z" fill="white"/>
</svg>
