<svg width="39" height="39" viewBox="0 0 39 39" fill="none" xmlns="http://www.w3.org/2000/svg">
<path d="M29.1335 18.131C29.426 18.5696 29.7184 19.0083 29.8646 19.7394H25.1857C25.1857 19.5932 25.1857 19.3007 25.3319 19.0083C25.4781 18.7159 25.4781 18.5696 25.7705 18.2772C25.9167 17.9848 26.2092 17.8386 26.5016 17.6923C26.794 17.5461 27.2327 17.3999 27.6714 17.3999C28.2562 17.5461 28.8411 17.6923 29.1335 18.131V18.131ZM15.6815 17.1075C15.9739 16.815 16.2664 16.3764 16.2664 15.7915C16.2664 15.4991 16.2664 15.2066 16.1202 14.9142C15.9739 14.768 15.8277 14.4755 15.6815 14.4755C15.5353 14.3293 15.2429 14.3293 14.9504 14.1831H11.1488V17.5461H14.3655C14.8042 17.5461 15.2429 17.3999 15.6815 17.1075V17.1075ZM14.5118 19.5932H11.1488V23.541H14.5118C14.8042 23.541 15.0966 23.541 15.3891 23.3948C15.6815 23.3948 15.9739 23.2486 16.1202 23.1024C16.2664 22.9562 16.5588 22.8099 16.705 22.5175C16.8512 22.2251 16.8513 21.9326 16.8513 21.6402C16.8513 20.9091 16.705 20.3242 16.2664 20.0318C15.8277 19.7394 15.2429 19.5932 14.5118 19.5932ZM38.6377 7.16466V30.8519C38.6377 34.7998 35.4209 38.0166 31.473 38.0166H7.78576C3.83788 38.0166 0.621094 34.7998 0.621094 30.8519V7.16466C0.621094 3.21679 3.83788 0 7.78576 0H31.473C35.4209 0 38.6377 3.21679 38.6377 7.16466ZM24.6008 14.0369H30.4495V12.5747H24.6008V14.0369ZM19.9218 21.9326C19.9218 21.0553 19.7756 20.3242 19.3369 19.5932C18.8983 19.0083 18.3134 18.5696 17.4361 18.2772C18.021 17.9848 18.6059 17.5461 18.8983 17.1075C19.1907 16.6688 19.3369 16.0839 19.3369 15.3529C19.3369 14.6218 19.1907 14.1831 19.0445 13.5982C18.7521 13.1596 18.4596 12.7209 18.1672 12.5747C17.7286 12.2823 17.2899 12.1361 16.705 11.9898C15.9739 11.6974 15.3891 11.6974 14.658 11.6974H7.93197V26.0267H14.9504C15.5353 26.0267 16.2664 25.8805 16.8513 25.7343C17.4361 25.5881 18.021 25.2956 18.4596 25.0032C18.8983 24.7108 19.3369 24.2721 19.6294 23.6873C19.7756 23.2486 19.9218 22.6637 19.9218 21.9326V21.9326ZM25.1857 21.494H32.6428C32.6428 20.6167 32.6428 19.8856 32.4965 19.1545C32.3503 18.4234 32.0579 17.6923 31.6192 17.2537C31.1806 16.6688 30.5957 16.2302 30.0108 15.9377C29.2797 15.6453 28.5487 15.3529 27.6714 15.3529C26.9403 15.3529 26.2092 15.4991 25.4781 15.7915C24.8932 16.0839 24.3083 16.5226 23.7235 16.9612C23.2848 17.3999 22.8462 17.9848 22.7 18.7159C22.4075 19.4469 22.2613 20.178 22.2613 20.9091C22.2613 21.6402 22.4075 22.5175 22.7 23.1024C22.9924 23.8335 23.2848 24.4183 23.7235 24.857C24.1621 25.2956 24.747 25.7343 25.3319 26.0267C26.063 26.3192 26.794 26.4654 27.5251 26.4654C28.6949 26.4654 29.7184 26.173 30.5957 25.5881C31.473 25.0032 32.0579 24.1259 32.4965 22.9562H30.0108C29.8646 23.2486 29.7184 23.541 29.2797 23.8335C28.8411 24.1259 28.4024 24.2721 27.8176 24.2721C27.0865 24.2721 26.3554 24.1259 25.9167 23.6873C25.4781 23.1024 25.1857 22.3713 25.1857 21.494V21.494Z" fill="#FCE5D2"/>
</svg>
