<svg width="1920" height="2130" viewBox="0 0 1920 2130" fill="none" xmlns="http://www.w3.org/2000/svg">
<path d="M93.5 697C35.7153 594.017 38.8333 318.667 -2 352V1125V1681.5C74.8333 1620.17 160.7 1470.6 199.5 1343C219.113 1278.5 222.667 1053.33 206.5 979.5C183.865 904.049 144 787 93.5 697Z" fill="#FFF8F3"/>
<path d="M1168 174.5C1031 156.902 726.5 75 655.5 1.5V-1H1921V1161.5V1841V2131.5H1298C1278.5 2057.17 1572.76 1957.11 1689.5 1763C1732.5 1691.5 1891 1226.5 1876 1083.5C1864 969.1 1832.33 828.167 1811 785.5C1776.5 709 1738.64 525.78 1746.5 459C1755.5 382.5 1800 189 1724 159.5C1627 121.849 1305 192.098 1168 174.5Z" fill="#FFF8F3"/>
<path d="M1213.5 127C1115.5 119.8 886.167 53.5 797.5 -0.5H1921.5V769.5L1894 679.5C1864 572 1838 465.5 1850 379.5C1860.29 305.728 1906 127 1870.5 81.5C1835 36 1680 40 1604.5 44.5C1529 49 1336 136 1213.5 127Z" fill="#FFF2E6"/>
<path d="M-1.99995 687.443C-6.62146 628.173 -1.99994 583.875 -1.99994 560.5L-1.99995 687.443C3.46185 757.491 21.8334 848.45 76.0001 950.5C176 1138.9 88.3333 1431.5 -2 1610L-1.99995 687.443Z" fill="#FFF2E6"/>
<path d="M1728.5 1978.5C1827.7 1909.7 1890.83 1608.17 1921 1457.5V2130H1626.5C1605.67 2083.5 1629.3 2047.3 1728.5 1978.5Z" fill="#FFF2E6"/>
</svg>
