<svg width="18" height="13" viewBox="0 0 18 13" fill="none" xmlns="http://www.w3.org/2000/svg">
<path d="M15.9439 3.59266L8.8577 7.44383L1.77154 3.59266V2.05219L8.8577 5.90336L15.9439 2.05219V3.59266ZM15.9439 0.511719H1.77154C0.788335 0.511719 0 1.19723 0 2.05219V11.295C0 11.7036 0.186644 12.0954 0.518872 12.3843C0.8511 12.6732 1.3017 12.8355 1.77154 12.8355H15.9439C16.4137 12.8355 16.8643 12.6732 17.1965 12.3843C17.5288 12.0954 17.7154 11.7036 17.7154 11.295V2.05219C17.7154 1.64363 17.5288 1.25181 17.1965 0.962912C16.8643 0.674018 16.4137 0.511719 15.9439 0.511719Z" fill="white"/>
</svg>
