<svg width="39" height="39" viewBox="0 0 39 39" fill="none" xmlns="http://www.w3.org/2000/svg">
<path d="M7.44983 0C3.35301 0 0 3.35293 0 7.44983V30.568C0 34.6648 3.35293 38.0166 7.44983 38.0166H30.568C34.6648 38.0166 38.0166 34.6648 38.0166 30.568V7.44983C38.0166 3.35301 34.6648 0 30.568 0H7.44983ZM9.32357 6.2735C11.2879 6.2735 12.4979 7.56305 12.5352 9.25816C12.5352 10.9158 11.2878 12.2416 9.28558 12.2416H9.24872C7.32177 12.2416 6.0763 10.9159 6.0763 9.25816C6.0763 7.56309 7.35946 6.2735 9.32353 6.2735H9.32357ZM26.2514 14.1962C30.0292 14.1962 32.8612 16.6654 32.8612 21.9716V31.8773H27.12V22.6357C27.12 20.3134 26.289 18.729 24.2113 18.729C22.6252 18.729 21.6798 19.7969 21.2647 20.8285C21.113 21.1976 21.0758 21.713 21.0758 22.2293V31.8773H15.3345C15.3345 31.8773 15.4099 16.2223 15.3345 14.6013H21.0769V17.0478C21.8399 15.8706 23.2046 14.1962 26.2514 14.1962V14.1962ZM6.41495 14.6026H12.1562V31.8773H6.41495V14.6026Z" fill="#1B2C4A"/>
</svg>
