<svg width="39" height="39" viewBox="0 0 39 39" fill="none" xmlns="http://www.w3.org/2000/svg">
<path d="M7.46643 0C3.36961 0 0.0166016 3.35293 0.0166016 7.44983V30.568C0.0166016 34.6648 3.36953 38.0166 7.46643 38.0166H30.5846C34.6814 38.0166 38.0332 34.6648 38.0332 30.568V7.44983C38.0332 3.35301 34.6814 0 30.5846 0H7.46643ZM9.34017 6.2735C11.3045 6.2735 12.5145 7.56305 12.5518 9.25816C12.5518 10.9158 11.3044 12.2416 9.30218 12.2416H9.26533C7.33837 12.2416 6.0929 10.9159 6.0929 9.25816C6.0929 7.56309 7.37606 6.2735 9.34014 6.2735H9.34017ZM26.268 14.1962C30.0458 14.1962 32.8778 16.6654 32.8778 21.9716V31.8773H27.1366V22.6357C27.1366 20.3134 26.3056 18.729 24.2279 18.729C22.6418 18.729 21.6964 19.7969 21.2813 20.8285C21.1296 21.1976 21.0924 21.713 21.0924 22.2293V31.8773H15.3511C15.3511 31.8773 15.4265 16.2223 15.3511 14.6013H21.0935V17.0478C21.8565 15.8706 23.2212 14.1962 26.268 14.1962V14.1962ZM6.43155 14.6026H12.1728V31.8773H6.43155V14.6026Z" fill="white"/>
</svg>
