<svg width="190" height="68" viewBox="0 0 190 68" fill="none" xmlns="http://www.w3.org/2000/svg">
<path d="M28.1191 35.4744C28.1191 36.3519 27.9417 37.1921 27.587 37.995C27.2509 38.7979 26.7934 39.498 26.2146 40.0955C25.6358 40.6743 24.945 41.1411 24.1421 41.4959C23.3392 41.832 22.4803 42 21.5654 42H2.29658V28.6966L11.3709 32.9257V38.5551H19.801C17.9525 35.8851 16.1134 33.2431 14.2836 30.6291C13.5181 29.5275 12.7152 28.3886 11.875 27.2123C11.0348 26.0173 10.2132 24.8317 9.41038 23.6554C8.60751 22.4604 7.81397 21.3214 7.02978 20.2385C6.24558 19.1369 5.52673 18.1286 4.87323 17.2137C4.33176 16.4482 3.86498 15.7667 3.47288 15.1692C3.09945 14.5531 2.79137 13.9743 2.54864 13.4328C2.30592 12.8913 2.12854 12.3685 2.01651 11.8644C1.90448 11.3416 1.84847 10.7721 1.84847 10.156C1.84847 9.24106 2.01651 8.39151 2.35259 7.60731C2.68868 6.82311 3.15546 6.14161 3.75295 5.5628C4.35043 4.96531 5.04127 4.49853 5.82547 4.16244C6.60967 3.80769 7.45922 3.63031 8.37412 3.63031H27.0268V16.8777L17.8965 12.6206V7.07518H10.1386C12.7152 10.7348 15.0491 14.0583 17.1403 17.0457C18.0179 18.3154 18.8954 19.585 19.773 20.8547C20.6692 22.1056 21.4721 23.2633 22.1816 24.3275C22.9098 25.3731 23.5353 26.26 24.0581 26.9882C24.5809 27.6977 24.917 28.1738 25.0663 28.4166C25.6078 29.1821 26.0653 29.8636 26.4387 30.4611C26.8308 31.0399 27.1482 31.6 27.3909 32.1415C27.6336 32.6643 27.811 33.1964 27.9231 33.7379C28.0538 34.2794 28.1191 34.8582 28.1191 35.4744ZM41.2824 17.5218V42H32.2081V5.50678L41.2824 1.33373V14.469H47.528V17.5218H41.2824ZM71.8381 36.0905C71.8381 36.8934 71.6888 37.6589 71.39 38.3871C71.0913 39.1153 70.6712 39.7501 70.1297 40.2916C69.5882 40.8144 68.9534 41.2345 68.2252 41.5519C67.497 41.8506 66.7315 42 65.9287 42H54.9219C54.119 42 53.3535 41.8506 52.6253 41.5519C51.8971 41.2345 51.2529 40.8144 50.6928 40.2916C50.1513 39.7501 49.7219 39.1153 49.4045 38.3871C49.1057 37.6589 48.9564 36.8934 48.9564 36.0905V14.469H57.9186V38.9472H62.9039V14.469H71.8381V36.0905ZM100.321 36.0905C100.321 36.8934 100.163 37.6589 99.8452 38.3871C99.5465 39.1153 99.1264 39.7501 98.5849 40.2916C98.0621 40.8144 97.4366 41.2345 96.7084 41.5519C95.9803 41.8506 95.2147 42 94.4119 42H86.3738V53.4269H77.2995V14.469H94.4119C95.2147 14.469 95.9803 14.6278 96.7084 14.9452C97.4366 15.2439 98.0621 15.664 98.5849 16.2055C99.1264 16.7283 99.5465 17.3538 99.8452 18.082C100.163 18.8101 100.321 19.5757 100.321 20.3785V36.0905ZM91.3591 17.5218H86.3738V38.9472H91.3591V17.5218ZM114.437 30.7131V38.9472H118.834V35.7544L127.264 31.8614V36.0345C127.264 36.8374 127.115 37.6029 126.816 38.3311C126.517 39.0593 126.097 39.7034 125.556 40.2636C125.014 40.805 124.379 41.2345 123.651 41.5519C122.923 41.8506 122.139 42 121.299 42H111.44C110.637 42 109.872 41.8506 109.144 41.5519C108.415 41.2345 107.771 40.8144 107.211 40.2916C106.67 39.7501 106.24 39.1153 105.923 38.3871C105.624 37.6589 105.475 36.8934 105.475 36.0905V20.3785C105.475 19.5757 105.624 18.8101 105.923 18.082C106.24 17.3538 106.66 16.7283 107.183 16.2055C107.725 15.664 108.359 15.2439 109.088 14.9452C109.816 14.6278 110.6 14.469 111.44 14.469H121.495C122.335 14.469 123.11 14.6278 123.819 14.9452C124.547 15.2439 125.182 15.664 125.724 16.2055C126.265 16.7283 126.685 17.3538 126.984 18.082C127.301 18.8101 127.46 19.5757 127.46 20.3785V24.6076L114.437 30.7131ZM118.946 17.5218H114.437V27.3243L118.946 25.1958V17.5218ZM145.385 6.90713V4.3865H141.828V14.469H149.698V17.5218H141.828V42H132.754V7.5793C132.754 5.63748 133.342 4.11576 134.518 3.01415C135.713 1.89387 137.151 1.33373 138.831 1.33373H153.535V10.7441L145.385 6.90713ZM174.512 47.1533C174.512 49.0765 173.915 50.5982 172.72 51.7185C171.543 52.8574 170.096 53.4269 168.379 53.4269H152.218V43.2603L160.649 47.2093V50.3741H165.466V42H157.484C156.681 42 155.915 41.8506 155.187 41.5519C154.459 41.2345 153.815 40.8144 153.255 40.2916C152.713 39.7501 152.284 39.1153 151.966 38.3871C151.668 37.6589 151.518 36.8934 151.518 36.0905V14.469H160.481V38.9472H165.466V14.469H174.512V47.1533Z" fill="#1B2C4A"/>
<path d="M94.506 51.1738C94.4909 51.1814 94.4176 51.2095 94.2861 51.2584C94.1546 51.3035 93.9836 51.3542 93.7732 51.4106C93.5627 51.4632 93.3203 51.5121 93.046 51.5572C92.7754 51.6023 92.4936 51.6248 92.2005 51.6248C91.7683 51.6248 91.3681 51.5722 90.9998 51.467C90.6353 51.3655 90.3027 51.2227 90.0021 51.0386C89.7052 50.8544 89.4421 50.6346 89.2129 50.379C88.9874 50.1235 88.7958 49.8454 88.6379 49.5448C88.4839 49.2441 88.3674 48.9247 88.2884 48.5865C88.2095 48.2483 88.1701 47.9026 88.1701 47.5493C88.1701 46.9518 88.2678 46.405 88.4632 45.909C88.6586 45.4129 88.9329 44.9883 89.2862 44.635C89.6394 44.278 90.0641 44.0018 90.5601 43.8064C91.0562 43.6072 91.6067 43.5077 92.2117 43.5077C92.3996 43.5077 92.58 43.5189 92.7529 43.5415C92.9295 43.5603 93.108 43.5884 93.2884 43.626C93.4688 43.6636 93.6585 43.7106 93.8577 43.7669C94.0569 43.8233 94.273 43.8872 94.506 43.9586V45.7681H93.8126L93.6435 44.7196C93.6285 44.6557 93.6003 44.6012 93.559 44.5561C93.5176 44.5073 93.48 44.4734 93.4462 44.4547L93.4011 44.4321C93.3523 44.4096 93.2903 44.3833 93.2151 44.3532C93.1399 44.3194 93.0535 44.2893 92.9558 44.263C92.8619 44.2329 92.7566 44.2085 92.6401 44.1897C92.5236 44.1672 92.3996 44.1559 92.2681 44.1559C91.8735 44.1559 91.5071 44.2292 91.1689 44.3757C90.8307 44.5223 90.5376 44.7384 90.2895 45.024C90.0415 45.3096 89.8461 45.6647 89.7033 46.0894C89.5643 46.5102 89.4947 46.9969 89.4947 47.5493C89.4947 48.0867 89.5605 48.5677 89.692 48.9924C89.8273 49.417 90.0209 49.7778 90.2726 50.0746C90.5244 50.3715 90.8307 50.5989 91.1915 50.7567C91.5522 50.9108 91.9618 50.9878 92.4203 50.9878C92.5556 50.9878 92.6777 50.9784 92.7867 50.9596C92.8994 50.9409 92.9971 50.9202 93.0798 50.8976C93.1625 50.8713 93.2264 50.8488 93.2715 50.83C93.3166 50.8074 93.3429 50.7943 93.3504 50.7905C93.4105 50.768 93.4594 50.736 93.4969 50.6947C93.5345 50.6534 93.559 50.6083 93.5702 50.5594L93.8352 49.3024H94.506V51.1738ZM102.795 51.4726C102.768 51.4764 102.731 51.4858 102.682 51.5008C102.633 51.5158 102.575 51.5327 102.507 51.5515C102.44 51.5703 102.364 51.5872 102.282 51.6023C102.203 51.6173 102.12 51.6248 102.034 51.6248C101.688 51.6248 101.408 51.5722 101.194 51.467C100.98 51.3655 100.805 51.2302 100.67 51.0611C100.538 50.8882 100.435 50.6928 100.36 50.4749C100.284 50.2569 100.215 50.0352 100.151 49.8097C100.087 49.5805 100.016 49.3569 99.9368 49.1389C99.8616 48.921 99.7545 48.7274 99.6155 48.5583C99.4764 48.3855 99.2961 48.2483 99.0743 48.1468C98.8526 48.0416 98.5651 47.989 98.2119 47.989C98.1518 47.989 98.0916 47.9909 98.0315 47.9946C97.9714 47.9946 97.9169 47.9965 97.868 48.0003C97.8229 48.004 97.7835 48.0078 97.7497 48.0115C97.7158 48.0115 97.697 48.0115 97.6933 48.0115V50.644C97.6933 50.7003 97.7121 50.7548 97.7497 50.8074C97.791 50.8601 97.853 50.8901 97.9357 50.8976L98.5445 50.9427V51.4388H95.6753V50.9427L96.2728 50.8976C96.3555 50.8901 96.4175 50.8601 96.4588 50.8074C96.5039 50.7548 96.5264 50.7003 96.5264 50.644V44.4885C96.5264 44.4321 96.5039 44.3776 96.4588 44.325C96.4175 44.2724 96.3555 44.2423 96.2728 44.2348L95.6753 44.1897V43.6937H98.6854C99.1251 43.6937 99.5196 43.7294 99.8691 43.8008C100.219 43.8722 100.516 43.9887 100.76 44.1503C101.004 44.3118 101.19 44.5242 101.318 44.7872C101.449 45.0465 101.515 45.366 101.515 45.7455C101.515 46.0499 101.463 46.3111 101.357 46.529C101.252 46.747 101.111 46.9311 100.935 47.0815C100.762 47.2318 100.561 47.3539 100.331 47.4478C100.102 47.5418 99.8654 47.617 99.6211 47.6733C99.933 47.7485 100.183 47.8537 100.371 47.989C100.559 48.1205 100.707 48.2708 100.816 48.4399C100.925 48.6091 101.006 48.7894 101.059 48.9811C101.111 49.169 101.158 49.3569 101.199 49.5448C101.241 49.7289 101.288 49.9055 101.34 50.0746C101.393 50.2438 101.474 50.3941 101.583 50.5256C101.695 50.6571 101.846 50.7624 102.034 50.8413C102.225 50.9164 102.479 50.954 102.795 50.954V51.4726ZM100.258 45.7962C100.258 45.5482 100.221 45.3303 100.145 45.1424C100.07 44.9507 99.9499 44.7891 99.7846 44.6576C99.623 44.5261 99.4125 44.4265 99.1532 44.3588C98.8977 44.2912 98.5877 44.2574 98.2232 44.2574H97.6933V47.4197C97.7008 47.4197 97.7271 47.4215 97.7722 47.4253C97.8173 47.4253 97.868 47.4253 97.9244 47.4253C97.9845 47.4253 98.0447 47.4272 98.1048 47.4309C98.1687 47.4309 98.2232 47.4309 98.2683 47.4309C98.5877 47.4309 98.8714 47.4046 99.1194 47.352C99.3675 47.2957 99.576 47.2036 99.7451 47.0758C99.9142 46.948 100.042 46.7808 100.128 46.5741C100.215 46.3637 100.258 46.1044 100.258 45.7962ZM103.519 51.4388V50.9427L104.116 50.8976C104.199 50.8901 104.261 50.8601 104.302 50.8074C104.347 50.7548 104.37 50.7003 104.37 50.644V44.4885C104.37 44.4321 104.347 44.3776 104.302 44.325C104.261 44.2724 104.199 44.2423 104.116 44.2348L103.519 44.1897V43.6937H109.127V45.4129H108.434L108.259 44.4659C108.252 44.4096 108.227 44.3588 108.186 44.3137C108.148 44.2686 108.103 44.2461 108.051 44.2461H105.548V47.1209H107.279C107.331 47.1209 107.378 47.0984 107.419 47.0533C107.465 47.0082 107.487 46.965 107.487 46.9236L107.605 46.1288H108.192V48.7049H107.605L107.487 47.9044C107.487 47.8631 107.465 47.818 107.419 47.7692C107.374 47.7203 107.327 47.6959 107.279 47.6959H105.548V50.8751H108.468C108.517 50.8751 108.562 50.8488 108.603 50.7962C108.645 50.7436 108.669 50.6966 108.676 50.6553L108.885 49.511H109.505V51.4388H103.519ZM115.201 51.4388V50.9427L115.866 50.8864C115.896 50.8864 115.924 50.8676 115.951 50.83C115.977 50.7887 115.99 50.7511 115.99 50.7173C115.99 50.7022 115.988 50.6928 115.984 50.6891L115.19 48.5752H112.523L111.757 50.6553C111.753 50.6628 111.751 50.674 111.751 50.6891C111.751 50.7342 111.77 50.7793 111.807 50.8244C111.849 50.8657 111.886 50.8864 111.92 50.8864L112.602 50.9427V51.4388H110.28V50.9427L110.951 50.8018L113.639 43.5077H114.508L117.185 50.6327C117.211 50.7116 117.236 50.7642 117.258 50.7905C117.285 50.8168 117.341 50.8375 117.427 50.8525L117.946 50.9427V51.4388H115.201ZM113.848 44.9958L112.726 48.0228H114.981L113.848 44.9958ZM124.397 45.5369L124.234 44.4547C124.222 44.3945 124.2 44.3475 124.166 44.3137C124.136 44.2761 124.095 44.2574 124.042 44.2574H122.39V50.644C122.39 50.7003 122.409 50.7548 122.447 50.8074C122.488 50.8601 122.55 50.8901 122.633 50.8976L123.371 50.9427V51.4388H120.243V50.9427L120.981 50.8976C121.064 50.8901 121.124 50.8601 121.162 50.8074C121.203 50.7548 121.224 50.7003 121.224 50.644V44.2574H119.561C119.508 44.2574 119.463 44.2761 119.425 44.3137C119.392 44.3475 119.371 44.3945 119.363 44.4547L119.206 45.5369H118.535V43.6937H125.079V45.5369H124.397ZM126 51.4388V50.9427L126.688 50.8976C126.771 50.8901 126.831 50.8601 126.869 50.8074C126.91 50.7548 126.931 50.7003 126.931 50.644V44.4885C126.931 44.4321 126.91 44.3795 126.869 44.3306C126.831 44.2818 126.771 44.2536 126.688 44.2461L126 44.201V43.6937H129.044V44.201L128.34 44.2461C128.261 44.2536 128.201 44.2818 128.159 44.3306C128.118 44.3795 128.097 44.4321 128.097 44.4885V50.644C128.097 50.7003 128.118 50.7548 128.159 50.8074C128.201 50.8601 128.261 50.8901 128.34 50.8976L129.044 50.9427V51.4388H126ZM136.679 44.3137L134.092 51.6248H133.213L130.569 44.3025L129.887 44.1897V43.6937H132.649V44.1897L131.967 44.2461C131.933 44.2536 131.907 44.2761 131.888 44.3137C131.869 44.3475 131.86 44.3814 131.86 44.4152C131.86 44.434 131.862 44.4471 131.865 44.4547L133.895 50.1592L135.845 44.4772C135.849 44.4697 135.851 44.4565 135.851 44.4377C135.851 44.3964 135.834 44.3551 135.8 44.3137C135.766 44.2724 135.729 44.2498 135.687 44.2461L135.05 44.1897V43.6937H137.344V44.1897L136.679 44.3137ZM138.181 51.4388V50.9427L138.779 50.8976C138.861 50.8901 138.923 50.8601 138.965 50.8074C139.01 50.7548 139.032 50.7003 139.032 50.644V44.4885C139.032 44.4321 139.01 44.3776 138.965 44.325C138.923 44.2724 138.861 44.2423 138.779 44.2348L138.181 44.1897V43.6937H143.79V45.4129H143.097L142.922 44.4659C142.914 44.4096 142.89 44.3588 142.849 44.3137C142.811 44.2686 142.766 44.2461 142.713 44.2461H140.21V47.1209H141.941C141.994 47.1209 142.041 47.0984 142.082 47.0533C142.127 47.0082 142.15 46.965 142.15 46.9236L142.268 46.1288H142.854V48.7049H142.268L142.15 47.9044C142.15 47.8631 142.127 47.818 142.082 47.7692C142.037 47.7203 141.99 47.6959 141.941 47.6959H140.21V50.8751H143.13C143.179 50.8751 143.224 50.8488 143.266 50.7962C143.307 50.7436 143.331 50.6966 143.339 50.6553L143.548 49.511H144.168V51.4388H138.181ZM150.45 49.2686C150.45 49.5617 150.391 49.8492 150.275 50.131C150.162 50.4129 149.982 50.6646 149.734 50.8864C149.486 51.1081 149.168 51.2866 148.781 51.4219C148.394 51.5572 147.93 51.6248 147.389 51.6248C147.073 51.6248 146.789 51.6023 146.538 51.5572C146.29 51.5121 146.075 51.4632 145.895 51.4106C145.688 51.3467 145.502 51.2753 145.337 51.1964V49.1502H146.064L146.216 50.458C146.224 50.5031 146.246 50.5519 146.284 50.6045C146.325 50.6571 146.367 50.6928 146.408 50.7116L146.504 50.7624C146.56 50.7887 146.637 50.8187 146.735 50.8525C146.833 50.8826 146.951 50.9108 147.09 50.9371C147.233 50.9634 147.394 50.9766 147.575 50.9766C147.819 50.9766 148.044 50.9465 148.251 50.8864C148.462 50.8225 148.642 50.7323 148.792 50.6158C148.943 50.4993 149.059 50.3565 149.142 50.1874C149.228 50.0183 149.271 49.8266 149.271 49.6124C149.271 49.3794 149.204 49.1765 149.069 49.0036C148.937 48.827 148.77 48.6711 148.567 48.5358C148.368 48.3967 148.15 48.2727 147.913 48.1637C147.676 48.0548 147.453 47.9495 147.242 47.8481C147.005 47.7353 146.778 47.6188 146.56 47.4986C146.346 47.3783 146.156 47.2393 145.991 47.0815C145.829 46.9236 145.7 46.7395 145.602 46.529C145.508 46.3148 145.461 46.0612 145.461 45.7681C145.461 45.4261 145.529 45.116 145.664 44.838C145.799 44.5599 145.985 44.3231 146.222 44.1277C146.462 43.9285 146.744 43.7763 147.067 43.6711C147.394 43.5621 147.748 43.5077 148.127 43.5077C148.334 43.5077 148.527 43.5189 148.708 43.5415C148.888 43.564 149.057 43.5941 149.215 43.6317C149.377 43.6655 149.527 43.7049 149.666 43.75C149.805 43.7914 149.937 43.8308 150.061 43.8684L150.162 43.9022V45.7004H149.503L149.328 44.5956C149.32 44.543 149.296 44.5054 149.255 44.4828C149.217 44.4565 149.181 44.4265 149.147 44.3926C149.132 44.3814 149.102 44.3626 149.057 44.3363C149.012 44.3062 148.948 44.2761 148.866 44.2461C148.787 44.216 148.687 44.1897 148.567 44.1672C148.447 44.1446 148.306 44.1333 148.144 44.1333C147.911 44.1333 147.703 44.1672 147.518 44.2348C147.334 44.3025 147.178 44.3983 147.051 44.5223C146.923 44.6425 146.823 44.7853 146.752 44.9507C146.684 45.116 146.65 45.2964 146.65 45.4918C146.65 45.6685 146.684 45.8301 146.752 45.9766C146.823 46.1194 146.927 46.2528 147.062 46.3768C147.201 46.4971 147.37 46.6098 147.569 46.7151C147.768 46.8203 147.998 46.9217 148.257 47.0194C148.606 47.151 148.916 47.2881 149.187 47.4309C149.461 47.5737 149.69 47.7335 149.875 47.9101C150.063 48.0867 150.205 48.2859 150.303 48.5076C150.401 48.7255 150.45 48.9792 150.45 49.2686Z" fill="#1B2C4A"/>
</svg>
