<svg width="1468" height="639" viewBox="0 0 1468 639" fill="none" xmlns="http://www.w3.org/2000/svg">
<rect width="1467.32" height="637.368" transform="translate(0 0.861328)" fill="#FFF6EF"/>
<path d="M421.657 319.829C421.657 397.054 359.054 459.657 281.829 459.657C204.603 459.657 142 397.054 142 319.829C142 242.603 204.603 180 281.829 180C359.054 180 421.657 242.603 421.657 319.829ZM264.12 319.829C264.12 329.609 272.048 337.537 281.829 337.537C291.609 337.537 299.537 329.609 299.537 319.829C299.537 310.048 291.609 302.12 281.829 302.12C272.048 302.12 264.12 310.048 264.12 319.829Z" fill="#FCE5D2"/>
<circle cx="281.442" cy="319.851" r="7.57461" fill="#1B2C4A"/>
<path d="M169.627 326.031C168.725 319.941 169.627 315.6 170.191 314.19L213.041 317.855L212.759 322.366L169.627 326.031Z" fill="#1B2C4A"/>
<path d="M280.42 424.418L273.936 400.455H289.441L282.957 424.418H280.42Z" fill="#1B2C4A"/>
<path d="M393.206 325.913C379.931 323.078 358.999 322.262 350.193 322.208L373.23 356.522H384.668L393.206 325.913Z" fill="#1B2C4A"/>
<path d="M314.429 329.135C318.811 326.558 325.598 324.624 328.444 323.98C319.906 330.102 315.879 335.74 317.167 342.345C318.456 348.95 327.478 352.817 329.411 353.783C333.599 356.844 348.42 360.549 359.536 366.51C370.491 373.115 371.135 382.298 371.135 388.258C371.135 394.219 369.524 404.69 360.986 413.229C354.156 420.059 343.641 424.022 339.238 425.15C344.286 421.498 353.382 412.165 349.387 404.046C344.393 393.897 328.605 391.158 322.484 387.614C315.073 385.197 307.341 380.526 301.219 374.243C295.097 367.96 295.097 361.033 295.741 356.361C296.386 351.689 297.514 345.567 301.38 340.251C305.246 334.935 308.952 332.357 314.429 329.135Z" fill="#1B2C4A"/>
<path d="M282.531 424.505L321.678 427.405L310.079 400.502H288.975L282.531 424.505Z" fill="#1B2C4A"/>
<path d="M393.206 314.474C379.931 317.31 358.999 318.126 350.193 318.18L373.23 283.866H384.668L393.206 314.474Z" fill="#1B2C4A"/>
<path d="M314.429 311.252C318.811 313.83 325.598 315.763 328.444 316.408C319.906 310.286 315.879 304.647 317.167 298.042C318.456 291.437 327.478 287.571 329.411 286.604C333.599 283.544 348.42 279.838 359.536 273.878C370.491 267.273 371.135 258.09 371.135 252.129C371.135 246.169 369.524 235.697 360.986 227.159C354.156 220.329 343.641 216.366 339.238 215.238C344.286 218.889 353.382 228.222 349.387 236.342C344.393 246.491 328.605 249.23 322.484 252.774C315.073 255.19 307.341 259.862 301.219 266.145C295.097 272.428 295.097 279.355 295.741 284.027C296.386 288.699 297.514 294.82 301.38 300.137C305.246 305.453 308.952 308.03 314.429 311.252Z" fill="#1B2C4A"/>
<path d="M282.531 215.882L321.678 212.982L310.079 239.886H288.975L282.531 215.882Z" fill="#1B2C4A"/>
<path d="M170.085 314.153C183.36 316.988 204.292 317.805 213.098 317.858L190.061 283.544H178.623L170.085 314.153Z" fill="#1B2C4A"/>
<path d="M248.862 310.931C244.48 313.509 237.693 315.442 234.847 316.086C243.385 309.965 247.412 304.326 246.124 297.721C244.835 291.116 235.813 287.25 233.88 286.283C229.692 283.222 214.871 279.517 203.755 273.556C192.8 266.951 192.156 257.769 192.156 251.808C192.156 245.847 193.767 235.376 202.305 226.838C209.135 220.007 219.65 216.044 224.053 214.917C219.005 218.568 209.909 227.901 213.904 236.02C218.898 246.17 234.686 248.908 240.807 252.452C248.218 254.869 255.95 259.541 262.072 265.824C268.194 272.106 268.194 279.034 267.55 283.706C266.905 288.377 265.777 294.499 261.911 299.815C258.045 305.132 254.339 307.709 248.862 310.931Z" fill="#1B2C4A"/>
<path d="M280.76 215.561L241.613 212.661L253.212 239.565H274.316L280.76 215.561Z" fill="#1B2C4A"/>
<path d="M169.761 325.913C183.035 323.078 203.967 322.262 212.774 322.208L189.737 356.522H178.299L169.761 325.913Z" fill="#1B2C4A"/>
<path d="M248.538 329.135C244.156 326.558 237.368 324.624 234.522 323.98C243.06 330.102 247.088 335.74 245.799 342.345C244.511 348.95 235.489 352.817 233.556 353.783C229.367 356.844 214.546 360.549 203.431 366.51C192.476 373.115 191.831 382.298 191.831 388.258C191.831 394.219 193.442 404.69 201.981 413.229C208.811 420.059 219.326 424.022 223.729 425.15C218.681 421.498 209.585 412.165 213.58 404.046C218.574 393.897 234.361 391.158 240.483 387.614C247.894 385.197 255.626 380.526 261.748 374.243C267.87 367.96 267.87 361.033 267.225 356.361C266.581 351.689 265.453 345.567 261.587 340.251C257.721 334.935 254.015 332.357 248.538 329.135Z" fill="#1B2C4A"/>
<path d="M280.436 424.505L241.289 427.405L252.888 400.502H273.992L280.436 424.505Z" fill="#1B2C4A"/>
<path d="M350.334 322.365V318.137L393.185 314.472C394.087 319.659 393.561 324.339 393.185 326.03L350.334 322.365Z" fill="#1B2C4A"/>
<path d="M284.929 215.802L279.009 215.521L273.652 239.483L289.158 239.765L284.929 215.802Z" fill="#1B2C4A"/>
<path d="M577.77 373.884C577.77 377.934 576.952 381.812 575.315 385.517C573.763 389.222 571.652 392.453 568.981 395.211C566.31 397.882 563.122 400.036 559.416 401.673C555.711 403.224 551.747 404 547.525 404H458.599V342.605L500.477 362.122V388.102H539.382C530.851 375.78 522.364 363.587 513.919 351.523C510.386 346.439 506.681 341.183 502.803 335.754C498.926 330.239 495.134 324.768 491.429 319.339C487.724 313.824 484.062 308.568 480.443 303.57C476.823 298.486 473.506 293.833 470.49 289.611C467.991 286.078 465.837 282.933 464.027 280.175C462.304 277.332 460.882 274.661 459.762 272.162C458.642 269.663 457.823 267.25 457.306 264.923C456.789 262.511 456.531 259.883 456.531 257.039C456.531 252.817 457.306 248.896 458.857 245.277C460.408 241.658 462.563 238.513 465.32 235.841C468.077 233.084 471.266 230.93 474.885 229.379C478.504 227.742 482.424 226.923 486.647 226.923H572.729V288.06L530.593 268.413V242.821H494.79C506.681 259.71 517.452 275.048 527.103 288.835C531.153 294.695 535.203 300.554 539.253 306.414C543.389 312.187 547.094 317.53 550.369 322.441C553.729 327.267 556.616 331.36 559.029 334.72C561.441 337.995 562.992 340.192 563.682 341.312C566.181 344.845 568.292 347.99 570.015 350.748C571.825 353.419 573.29 356.004 574.41 358.503C575.53 360.916 576.349 363.371 576.866 365.87C577.469 368.369 577.77 371.04 577.77 373.884ZM638.519 291.033V404H596.641V235.583L638.519 216.324V276.944H667.343V291.033H638.519ZM779.535 376.728C779.535 380.433 778.845 383.966 777.467 387.326C776.088 390.687 774.149 393.617 771.65 396.116C769.151 398.528 766.222 400.467 762.861 401.932C759.501 403.311 755.968 404 752.262 404H701.466C697.761 404 694.228 403.311 690.867 401.932C687.506 400.467 684.534 398.528 681.949 396.116C679.45 393.617 677.468 390.687 676.003 387.326C674.624 383.966 673.935 380.433 673.935 376.728V276.944H715.296V389.911H738.303V276.944H779.535V376.728ZM910.985 376.728C910.985 380.433 910.253 383.966 908.788 387.326C907.409 390.687 905.471 393.617 902.972 396.116C900.559 398.528 897.672 400.467 894.312 401.932C890.951 403.311 887.418 404 883.713 404H846.617V456.735H804.739V276.944H883.713C887.418 276.944 890.951 277.676 894.312 279.141C897.672 280.52 900.559 282.459 902.972 284.958C905.471 287.37 907.409 290.257 908.788 293.618C910.253 296.978 910.985 300.511 910.985 304.216V376.728ZM869.624 291.033H846.617V389.911H869.624V291.033ZM976.129 351.911V389.911H996.422V375.177L1035.33 357.21V376.469C1035.33 380.174 1034.64 383.707 1033.26 387.068C1031.88 390.428 1029.94 393.401 1027.44 395.986C1024.94 398.485 1022.01 400.467 1018.65 401.932C1015.29 403.311 1011.67 404 1007.8 404H962.299C958.594 404 955.061 403.311 951.7 401.932C948.34 400.467 945.367 398.528 942.782 396.116C940.283 393.617 938.301 390.687 936.836 387.326C935.457 383.966 934.768 380.433 934.768 376.728V304.216C934.768 300.511 935.457 296.978 936.836 293.618C938.301 290.257 940.24 287.37 942.652 284.958C945.151 282.459 948.081 280.52 951.442 279.141C954.802 277.676 958.421 276.944 962.299 276.944H1008.7C1012.58 276.944 1016.15 277.676 1019.43 279.141C1022.79 280.52 1025.72 282.459 1028.22 284.958C1030.72 287.37 1032.66 290.257 1034.03 293.618C1035.5 296.978 1036.23 300.511 1036.23 304.216V323.734L976.129 351.911ZM996.939 291.033H976.129V336.271L996.939 326.448V291.033ZM1118.95 242.046V230.413H1102.54V276.944H1138.86V291.033H1102.54V404H1060.66V245.148C1060.66 236.186 1063.38 229.163 1068.8 224.079C1074.32 218.909 1080.95 216.324 1088.71 216.324H1156.57V259.753L1118.95 242.046ZM1253.38 427.783C1253.38 436.658 1250.62 443.681 1245.11 448.851C1239.68 454.107 1233 456.735 1225.07 456.735H1150.49V409.816L1189.4 428.041V442.647H1211.63V404H1174.79C1171.09 404 1167.55 403.311 1164.19 401.932C1160.83 400.467 1157.86 398.528 1155.27 396.116C1152.78 393.617 1150.79 390.687 1149.33 387.326C1147.95 383.966 1147.26 380.433 1147.26 376.728V276.944H1188.62V389.911H1211.63V276.944H1253.38V427.783Z" fill="#1B2C4A"/>
<path d="M884.146 450.403C884.076 450.438 883.738 450.568 883.131 450.794C882.524 451.002 881.735 451.236 880.764 451.496C879.793 451.739 878.674 451.964 877.408 452.172C876.159 452.38 874.858 452.484 873.506 452.484C871.511 452.484 869.664 452.242 867.965 451.756C866.282 451.288 864.748 450.629 863.36 449.779C861.99 448.929 860.776 447.915 859.718 446.735C858.677 445.556 857.793 444.273 857.065 442.885C856.354 441.498 855.816 440.024 855.452 438.463C855.087 436.902 854.905 435.306 854.905 433.676C854.905 430.918 855.356 428.395 856.258 426.106C857.16 423.817 858.426 421.857 860.056 420.227C861.686 418.579 863.646 417.304 865.936 416.402C868.225 415.483 870.766 415.024 873.558 415.024C874.425 415.024 875.257 415.076 876.055 415.18C876.87 415.266 877.694 415.396 878.527 415.57C879.359 415.743 880.235 415.96 881.154 416.22C882.073 416.48 883.07 416.775 884.146 417.105V425.455H880.946L880.165 420.617C880.096 420.322 879.966 420.07 879.775 419.862C879.584 419.637 879.411 419.481 879.255 419.394L879.047 419.29C878.821 419.186 878.535 419.065 878.188 418.926C877.841 418.77 877.443 418.631 876.992 418.51C876.558 418.371 876.072 418.258 875.535 418.171C874.997 418.067 874.425 418.015 873.818 418.015C871.997 418.015 870.306 418.353 868.745 419.03C867.184 419.706 865.831 420.703 864.687 422.022C863.542 423.34 862.64 424.978 861.981 426.938C861.34 428.881 861.019 431.127 861.019 433.676C861.019 436.156 861.322 438.376 861.929 440.336C862.554 442.295 863.447 443.96 864.609 445.33C865.771 446.701 867.184 447.75 868.849 448.478C870.514 449.189 872.404 449.545 874.52 449.545C875.145 449.545 875.708 449.501 876.211 449.415C876.732 449.328 877.182 449.233 877.564 449.129C877.946 449.007 878.24 448.903 878.448 448.816C878.657 448.712 878.778 448.652 878.813 448.634C879.09 448.53 879.316 448.383 879.489 448.192C879.662 448.001 879.775 447.793 879.827 447.568L881.05 441.766H884.146V450.403ZM922.398 451.782C922.277 451.799 922.104 451.843 921.878 451.912C921.653 451.982 921.384 452.06 921.072 452.146C920.759 452.233 920.413 452.311 920.031 452.38C919.667 452.45 919.285 452.484 918.886 452.484C917.291 452.484 915.999 452.242 915.01 451.756C914.022 451.288 913.215 450.663 912.591 449.883C911.984 449.085 911.507 448.183 911.16 447.178C910.813 446.172 910.492 445.148 910.198 444.108C909.903 443.05 909.573 442.018 909.209 441.012C908.862 440.006 908.368 439.113 907.726 438.333C907.085 437.535 906.252 436.902 905.229 436.434C904.206 435.948 902.879 435.705 901.249 435.705C900.971 435.705 900.694 435.714 900.416 435.731C900.139 435.731 899.887 435.74 899.662 435.757C899.454 435.774 899.272 435.792 899.115 435.809C898.959 435.809 898.873 435.809 898.855 435.809V447.958C898.855 448.218 898.942 448.47 899.115 448.712C899.306 448.955 899.592 449.094 899.974 449.129L902.783 449.337V451.626H889.542V449.337L892.3 449.129C892.681 449.094 892.967 448.955 893.158 448.712C893.366 448.47 893.47 448.218 893.47 447.958V419.55C893.47 419.29 893.366 419.039 893.158 418.796C892.967 418.553 892.681 418.414 892.3 418.379L889.542 418.171V415.882H903.434C905.463 415.882 907.284 416.047 908.897 416.376C910.51 416.706 911.88 417.244 913.007 417.989C914.134 418.735 914.993 419.715 915.583 420.929C916.19 422.126 916.493 423.6 916.493 425.351C916.493 426.756 916.25 427.961 915.765 428.967C915.279 429.973 914.629 430.823 913.814 431.517C913.016 432.211 912.088 432.774 911.03 433.208C909.972 433.641 908.88 433.988 907.752 434.248C909.192 434.595 910.345 435.081 911.212 435.705C912.079 436.312 912.764 437.006 913.267 437.786C913.77 438.567 914.143 439.399 914.386 440.284C914.629 441.151 914.846 442.018 915.036 442.885C915.227 443.735 915.444 444.55 915.687 445.33C915.929 446.111 916.302 446.805 916.805 447.412C917.326 448.019 918.019 448.504 918.886 448.868C919.771 449.215 920.942 449.389 922.398 449.389V451.782ZM910.692 425.585C910.692 424.441 910.518 423.435 910.172 422.568C909.825 421.683 909.27 420.938 908.507 420.331C907.761 419.724 906.79 419.264 905.593 418.952C904.414 418.64 902.983 418.484 901.301 418.484H898.855V433.078C898.89 433.078 899.011 433.086 899.219 433.104C899.428 433.104 899.662 433.104 899.922 433.104C900.199 433.104 900.477 433.112 900.754 433.13C901.049 433.13 901.301 433.13 901.509 433.13C902.983 433.13 904.292 433.008 905.437 432.765C906.582 432.505 907.544 432.08 908.325 431.491C909.105 430.901 909.695 430.129 910.094 429.175C910.492 428.204 910.692 427.008 910.692 425.585ZM925.74 451.626V449.337L928.497 449.129C928.879 449.094 929.165 448.955 929.356 448.712C929.564 448.47 929.668 448.218 929.668 447.958V419.55C929.668 419.29 929.564 419.039 929.356 418.796C929.165 418.553 928.879 418.414 928.497 418.379L925.74 418.171V415.882H951.624V423.817H948.424L947.618 419.446C947.583 419.186 947.47 418.952 947.28 418.744C947.106 418.536 946.898 418.432 946.655 418.432H935.105V431.699H943.091C943.334 431.699 943.551 431.595 943.742 431.387C943.95 431.179 944.054 430.979 944.054 430.788L944.6 427.12H947.306V439.009H944.6L944.054 435.315C944.054 435.124 943.95 434.916 943.742 434.691C943.534 434.465 943.317 434.352 943.091 434.352H935.105V449.025H948.58C948.806 449.025 949.014 448.903 949.205 448.66C949.395 448.418 949.508 448.201 949.543 448.01L950.505 442.729H953.367V451.626H925.74ZM979.653 451.626V449.337L982.723 449.077C982.862 449.077 982.992 448.99 983.113 448.816C983.234 448.626 983.295 448.452 983.295 448.296C983.295 448.227 983.286 448.183 983.269 448.166L979.601 438.411H967.296L963.758 448.01C963.741 448.045 963.732 448.097 963.732 448.166C963.732 448.374 963.819 448.582 963.992 448.79C964.183 448.981 964.357 449.077 964.513 449.077L967.66 449.337V451.626H956.942V449.337L960.038 448.686L972.447 415.024H976.453L988.81 447.906C988.932 448.27 989.044 448.513 989.148 448.634C989.27 448.756 989.53 448.851 989.929 448.92L992.322 449.337V451.626H979.653ZM973.41 421.891L968.233 435.861H978.639L973.41 421.891ZM1022.09 424.389L1021.34 419.394C1021.29 419.117 1021.18 418.9 1021.03 418.744C1020.89 418.57 1020.7 418.484 1020.46 418.484H1012.83V447.958C1012.83 448.218 1012.92 448.47 1013.09 448.712C1013.28 448.955 1013.57 449.094 1013.95 449.129L1017.36 449.337V451.626H1002.92V449.337L1006.33 449.129C1006.71 449.094 1006.99 448.955 1007.16 448.712C1007.35 448.47 1007.45 448.218 1007.45 447.958V418.484H999.774C999.531 418.484 999.323 418.57 999.149 418.744C998.993 418.9 998.898 419.117 998.863 419.394L998.135 424.389H995.039V415.882H1025.24V424.389H1022.09ZM1029.49 451.626V449.337L1032.67 449.129C1033.05 449.094 1033.33 448.955 1033.5 448.712C1033.69 448.47 1033.79 448.218 1033.79 447.958V419.55C1033.79 419.29 1033.69 419.047 1033.5 418.822C1033.33 418.596 1033.05 418.466 1032.67 418.432L1029.49 418.223V415.882H1043.54V418.223L1040.29 418.432C1039.93 418.466 1039.65 418.596 1039.46 418.822C1039.27 419.047 1039.17 419.29 1039.17 419.55V447.958C1039.17 448.218 1039.27 448.47 1039.46 448.712C1039.65 448.955 1039.93 449.094 1040.29 449.129L1043.54 449.337V451.626H1029.49ZM1078.78 418.744L1066.84 452.484H1062.78L1050.58 418.692L1047.43 418.171V415.882H1060.18V418.171L1057.03 418.432C1056.87 418.466 1056.75 418.57 1056.66 418.744C1056.58 418.9 1056.53 419.056 1056.53 419.212C1056.53 419.299 1056.54 419.359 1056.56 419.394L1065.93 445.721L1074.93 419.498C1074.94 419.463 1074.95 419.403 1074.95 419.316C1074.95 419.125 1074.87 418.934 1074.72 418.744C1074.56 418.553 1074.39 418.449 1074.2 418.432L1071.26 418.171V415.882H1081.85V418.171L1078.78 418.744ZM1085.71 451.626V449.337L1088.47 449.129C1088.85 449.094 1089.13 448.955 1089.32 448.712C1089.53 448.47 1089.64 448.218 1089.64 447.958V419.55C1089.64 419.29 1089.53 419.039 1089.32 418.796C1089.13 418.553 1088.85 418.414 1088.47 418.379L1085.71 418.171V415.882H1111.59V423.817H1108.39L1107.59 419.446C1107.55 419.186 1107.44 418.952 1107.25 418.744C1107.07 418.536 1106.87 418.432 1106.62 418.432H1095.07V431.699H1103.06C1103.3 431.699 1103.52 431.595 1103.71 431.387C1103.92 431.179 1104.02 430.979 1104.02 430.788L1104.57 427.12H1107.27V439.009H1104.57L1104.02 435.315C1104.02 435.124 1103.92 434.916 1103.71 434.691C1103.5 434.465 1103.28 434.352 1103.06 434.352H1095.07V449.025H1108.55C1108.77 449.025 1108.98 448.903 1109.17 448.66C1109.36 448.418 1109.48 448.201 1109.51 448.01L1110.47 442.729H1113.34V451.626H1085.71ZM1142.33 441.61C1142.33 442.963 1142.06 444.29 1141.52 445.591C1141 446.891 1140.17 448.053 1139.02 449.077C1137.88 450.1 1136.41 450.924 1134.63 451.548C1132.84 452.172 1130.7 452.484 1128.2 452.484C1126.74 452.484 1125.43 452.38 1124.27 452.172C1123.13 451.964 1122.14 451.739 1121.31 451.496C1120.35 451.201 1119.49 450.872 1118.73 450.507V441.064H1122.09L1122.79 447.099C1122.82 447.308 1122.93 447.533 1123.1 447.776C1123.29 448.019 1123.48 448.183 1123.67 448.27L1124.12 448.504C1124.38 448.626 1124.73 448.764 1125.18 448.92C1125.63 449.059 1126.18 449.189 1126.82 449.311C1127.48 449.432 1128.23 449.493 1129.06 449.493C1130.19 449.493 1131.23 449.354 1132.18 449.077C1133.15 448.782 1133.98 448.365 1134.68 447.828C1135.37 447.29 1135.91 446.631 1136.29 445.851C1136.69 445.07 1136.89 444.186 1136.89 443.197C1136.89 442.122 1136.58 441.186 1135.95 440.388C1135.35 439.573 1134.57 438.853 1133.64 438.229C1132.72 437.587 1131.71 437.015 1130.62 436.512C1129.53 436.009 1128.5 435.523 1127.52 435.055C1126.43 434.534 1125.38 433.997 1124.38 433.442C1123.39 432.887 1122.51 432.245 1121.75 431.517C1121 430.788 1120.41 429.939 1119.95 428.967C1119.52 427.979 1119.3 426.808 1119.3 425.455C1119.3 423.877 1119.62 422.446 1120.24 421.163C1120.86 419.88 1121.72 418.787 1122.82 417.885C1123.93 416.966 1125.23 416.264 1126.72 415.778C1128.23 415.275 1129.86 415.024 1131.61 415.024C1132.56 415.024 1133.46 415.076 1134.29 415.18C1135.12 415.284 1135.9 415.422 1136.63 415.596C1137.38 415.752 1138.07 415.934 1138.71 416.142C1139.35 416.333 1139.96 416.515 1140.53 416.689L1141 416.845V425.143H1137.96L1137.15 420.044C1137.12 419.802 1137 419.628 1136.81 419.524C1136.64 419.403 1136.47 419.264 1136.32 419.108C1136.25 419.056 1136.11 418.969 1135.9 418.848C1135.69 418.709 1135.4 418.57 1135.02 418.432C1134.65 418.293 1134.19 418.171 1133.64 418.067C1133.08 417.963 1132.43 417.911 1131.69 417.911C1130.61 417.911 1129.65 418.067 1128.8 418.379C1127.95 418.692 1127.23 419.134 1126.64 419.706C1126.05 420.261 1125.59 420.92 1125.26 421.683C1124.95 422.446 1124.79 423.279 1124.79 424.181C1124.79 424.996 1124.95 425.742 1125.26 426.418C1125.59 427.077 1126.07 427.693 1126.69 428.265C1127.33 428.82 1128.11 429.34 1129.03 429.826C1129.95 430.311 1131.01 430.78 1132.21 431.231C1133.82 431.838 1135.25 432.471 1136.5 433.13C1137.77 433.789 1138.82 434.526 1139.67 435.341C1140.54 436.156 1141.2 437.075 1141.65 438.098C1142.1 439.104 1142.33 440.275 1142.33 441.61Z" fill="#1B2C4A"/>
</svg>
