<svg width="87" height="87" viewBox="0 0 87 87" fill="none" xmlns="http://www.w3.org/2000/svg">
<path d="M87 43.5C87 67.5245 67.5245 87 43.5 87C19.4755 87 0 67.5245 0 43.5C0 19.4755 19.4755 0 43.5 0C67.5245 0 87 19.4755 87 43.5ZM37.9909 43.5C37.9909 46.5425 40.4575 49.0091 43.5 49.0091C46.5425 49.0091 49.0091 46.5425 49.0091 43.5C49.0091 40.4575 46.5425 37.9909 43.5 37.9909C40.4575 37.9909 37.9909 40.4575 37.9909 43.5Z" fill="#FCE5D2"/>
<path d="M8.59477 45.4294C8.31412 43.5351 8.59477 42.1845 8.77017 41.746L22.1008 42.8861L22.0131 44.2893L8.59477 45.4294Z" fill="#1B2C4A"/>
<path d="M43.0616 76.0373L41.0444 68.5827H45.868L43.8509 76.0373H43.0616Z" fill="#1B2C4A"/>
<path d="M43.3799 45.8632C44.6813 45.8632 45.7363 44.8082 45.7363 43.5067C45.7363 42.2053 44.6813 41.1503 43.3799 41.1503C42.0784 41.1503 41.0234 42.2053 41.0234 43.5067C41.0234 44.8082 42.0784 45.8632 43.3799 45.8632Z" fill="#1B2C4A"/>
<path d="M78.1487 45.3928C74.019 44.5109 67.5071 44.2569 64.7673 44.2402L71.9341 54.9151H75.4924L78.1487 45.3928Z" fill="#1B2C4A"/>
<path d="M53.6416 46.3952C55.0046 45.5933 57.1163 44.992 58.0018 44.7915C55.3456 46.6959 54.0925 48.4501 54.4935 50.5047C54.8945 52.5596 57.7009 53.7623 58.3024 54.0631C59.6055 55.0152 64.2161 56.168 67.6742 58.0223C71.0821 60.0772 71.2826 62.9338 71.2826 64.7882C71.2826 66.6424 70.7815 69.9 68.1253 72.5563C66.0003 74.6811 62.7294 75.914 61.3595 76.2648C62.9299 75.1289 65.7598 72.2255 64.5169 69.6996C62.9632 66.5422 58.0518 65.6903 56.1474 64.5877C53.8419 63.8359 51.4364 62.3825 49.5319 60.428C47.6275 58.4733 47.6275 56.3183 47.828 54.8649C48.0285 53.4115 48.3793 51.5072 49.5821 49.8533C50.7848 48.1994 51.9375 47.3975 53.6416 46.3952Z" fill="#1B2C4A"/>
<path d="M43.7183 76.0644L55.8967 76.9665L52.2883 68.5971H45.7229L43.7183 76.0644Z" fill="#1B2C4A"/>
<path d="M78.1487 41.8345C74.019 42.7165 67.5071 42.9705 64.7673 42.9871L71.9341 32.3123H75.4924L78.1487 41.8345Z" fill="#1B2C4A"/>
<path d="M53.6416 40.8321C55.0046 41.6341 57.1163 42.2354 58.0018 42.4358C55.3456 40.5315 54.0925 38.7773 54.4935 36.7226C54.8945 34.6678 57.7009 33.465 58.3024 33.1642C59.6055 32.2121 64.2161 31.0594 67.6742 29.205C71.0821 27.1501 71.2826 24.2935 71.2826 22.4392C71.2826 20.585 70.7815 17.3273 68.1253 14.6711C66.0003 12.5461 62.7294 11.3133 61.3595 10.9625C62.9299 12.0984 65.7598 15.0019 64.5169 17.5278C62.9632 20.6851 58.0518 21.5371 56.1474 22.6397C53.8419 23.3914 51.4364 24.8448 49.5319 26.7993C47.6275 28.754 47.6275 30.909 47.828 32.3624C48.0285 33.8158 48.3793 35.7202 49.5821 37.3741C50.7848 39.0279 51.9375 39.8299 53.6416 40.8321Z" fill="#1B2C4A"/>
<path d="M43.7183 11.163L55.8967 10.2609L52.2883 18.6303H45.7229L43.7183 11.163Z" fill="#1B2C4A"/>
<path d="M8.73669 41.7342C12.8663 42.6163 19.3782 42.8703 22.118 42.887L14.9512 32.2121H11.3929L8.73669 41.7342Z" fill="#1B2C4A"/>
<path d="M33.2438 40.732C31.8807 41.5338 29.7691 42.1352 28.8836 42.3357C31.5399 40.4312 32.7928 38.6772 32.3919 36.6223C31.9911 34.5676 29.1844 33.3647 28.583 33.0641C27.2801 32.1118 22.6693 30.9593 19.2112 29.1049C15.8033 27.05 15.6028 24.1934 15.6028 22.3391C15.6028 20.4847 16.1039 17.2271 18.7601 14.5709C20.8851 12.446 24.156 11.2131 25.5259 10.8623C23.9557 11.9983 21.1257 14.9017 22.3686 17.4276C23.9222 20.585 28.8336 21.437 30.7382 22.5395C33.0435 23.2913 35.449 24.7447 37.3535 26.6992C39.2579 28.6538 39.2579 30.8088 39.0574 32.2621C38.8571 33.7155 38.5061 35.6201 37.3033 37.2739C36.1006 38.9278 34.9478 39.7296 33.2438 40.732Z" fill="#1B2C4A"/>
<path d="M43.1671 11.0628L30.9886 10.1606L34.597 18.5302H41.1624L43.1671 11.0628Z" fill="#1B2C4A"/>
<path d="M8.63647 45.3928C12.7661 44.5109 19.278 44.2569 22.0176 44.2402L14.851 54.9151H11.2927L8.63647 45.3928Z" fill="#1B2C4A"/>
<path d="M33.1438 46.3952C31.7805 45.5933 29.669 44.992 28.7836 44.7915C31.4397 46.6959 32.6928 48.4501 32.2918 50.5047C31.8909 52.5596 29.0844 53.7623 28.4829 54.0631C27.1799 55.0152 22.5692 56.168 19.1112 58.0223C15.7032 60.0772 15.5027 62.9338 15.5027 64.7882C15.5027 66.6424 16.0038 69.9 18.66 72.5563C20.785 74.6811 24.0559 75.914 25.4258 76.2648C23.8555 75.1289 21.0255 72.2255 22.2684 69.6996C23.8221 66.5422 28.7336 65.6903 30.6379 64.5877C32.9434 63.8359 35.3489 62.3825 37.2535 60.428C39.1578 58.4733 39.1578 56.3183 38.9573 54.8649C38.7568 53.4115 38.406 51.5072 37.2033 49.8533C36.0004 48.1994 34.8478 47.3975 33.1438 46.3952Z" fill="#1B2C4A"/>
<path d="M43.067 76.0644L30.8885 76.9665L34.4969 68.5971H41.0623L43.067 76.0644Z" fill="#1B2C4A"/>
<path d="M64.8114 44.2894V42.9739L78.142 41.8337C78.4227 43.4475 78.259 44.9033 78.142 45.4295L64.8114 44.2894Z" fill="#1B2C4A"/>
<path d="M44.4646 11.1382L42.6229 11.0505L40.9565 18.5051L45.7801 18.5928L44.4646 11.1382Z" fill="#1B2C4A"/>
</svg>
