<svg width="17" height="15" viewBox="0 0 17 15" fill="none" xmlns="http://www.w3.org/2000/svg">
<path d="M16.6481 11.6001L12.9572 8.61714C12.7827 8.47618 12.5535 8.40101 12.3178 8.40749C12.0822 8.41396 11.8586 8.50158 11.6942 8.65184L9.52146 10.638C8.99847 10.5493 7.94705 10.2579 6.86476 9.29831C5.78247 8.33547 5.4547 7.39846 5.35754 6.93682L7.59022 5.00469C7.75948 4.85871 7.8582 4.65993 7.86548 4.4504C7.87277 4.24087 7.78805 4.03704 7.62927 3.88205L4.27435 0.602117C4.11549 0.44664 3.89471 0.352332 3.65889 0.339222C3.42306 0.326111 3.19078 0.395231 3.01137 0.531902L1.04109 2.03386C0.884116 2.1739 0.790422 2.36028 0.777783 2.55765C0.764164 2.75942 0.504487 7.53889 4.67385 11.2466C8.31114 14.4789 12.8673 14.7154 14.1221 14.7154C14.3055 14.7154 14.4181 14.7105 14.4481 14.7089C14.6701 14.6979 14.8796 14.6142 15.0364 14.474L16.7252 12.7219C16.8796 12.5629 16.9579 12.3566 16.9435 12.147C16.9291 11.9374 16.8231 11.7411 16.6481 11.6001Z" fill="white"/>
</svg>
