<svg width="39" height="39" viewBox="0 0 39 39" fill="none" xmlns="http://www.w3.org/2000/svg">
<path d="M19.0032 12.6695C15.5129 12.6695 12.6645 15.5179 12.6645 19.0083C12.6645 22.4987 15.5129 25.3471 19.0032 25.3471C22.4935 25.3471 25.3419 22.4987 25.3419 19.0083C25.3419 15.5179 22.4935 12.6695 19.0032 12.6695ZM38.0145 19.0083C38.0145 16.3834 38.0382 13.7822 37.8908 11.1621C37.7434 8.11869 37.0492 5.41768 34.8237 3.19221C32.5935 0.961982 29.8973 0.272466 26.854 0.125052C24.2291 -0.0223621 21.628 0.00141443 19.0079 0.00141443C16.3831 0.00141443 13.782 -0.0223621 11.1619 0.125052C8.11854 0.272466 5.41758 0.966737 3.19215 3.19221C0.961964 5.42244 0.272461 8.11869 0.125049 11.1621C-0.0223616 13.787 0.00141441 16.3881 0.00141441 19.0083C0.00141441 21.6285 -0.0223616 24.2344 0.125049 26.8545C0.272461 29.8979 0.96672 32.5989 3.19215 34.8244C5.42234 37.0546 8.11854 37.7441 11.1619 37.8915C13.7867 38.0389 16.3878 38.0152 19.0079 38.0152C21.6328 38.0152 24.2339 38.0389 26.854 37.8915C29.8973 37.7441 32.5983 37.0498 34.8237 34.8244C37.0539 32.5941 37.7434 29.8979 37.8908 26.8545C38.043 24.2344 38.0145 21.6332 38.0145 19.0083V19.0083ZM19.0032 28.7614C13.606 28.7614 9.25027 24.4055 9.25027 19.0083C9.25027 13.611 13.606 9.2552 19.0032 9.2552C24.4003 9.2552 28.7561 13.611 28.7561 19.0083C28.7561 24.4055 24.4003 28.7614 19.0032 28.7614ZM29.1555 11.1335C27.8954 11.1335 26.8778 10.1159 26.8778 8.85576C26.8778 7.59561 27.8954 6.57797 29.1555 6.57797C30.4157 6.57797 31.4333 7.59561 31.4333 8.85576C31.4336 9.15498 31.375 9.45135 31.2606 9.72787C31.1463 10.0044 30.9786 10.2556 30.767 10.4672C30.5554 10.6788 30.3041 10.8466 30.0276 10.9609C29.7511 11.0753 29.4548 11.1339 29.1555 11.1335V11.1335Z" fill="#FCE5D2"/>
</svg>
