<svg width="39" height="39" viewBox="0 0 39 39" fill="none" xmlns="http://www.w3.org/2000/svg">
<path d="M7.69202 0C3.59519 0 0.242188 3.35293 0.242188 7.44983V30.568C0.242188 34.6648 3.59512 38.0166 7.69202 38.0166H30.8102C34.907 38.0166 38.2588 34.6648 38.2588 30.568V7.44983C38.2588 3.35301 34.907 0 30.8102 0H7.69202ZM9.56576 6.2735C11.5301 6.2735 12.74 7.56305 12.7774 9.25816C12.7774 10.9158 11.53 12.2416 9.52777 12.2416H9.49091C7.56396 12.2416 6.31849 10.9159 6.31849 9.25816C6.31849 7.56309 7.60165 6.2735 9.56572 6.2735H9.56576ZM26.4936 14.1962C30.2714 14.1962 33.1034 16.6654 33.1034 21.9716V31.8773H27.3621V22.6357C27.3621 20.3134 26.5312 18.729 24.4535 18.729C22.8674 18.729 21.9219 19.7969 21.5069 20.8285C21.3552 21.1976 21.3179 21.713 21.3179 22.2293V31.8773H15.5767C15.5767 31.8773 15.6521 16.2223 15.5767 14.6013H21.3191V17.0478C22.0821 15.8706 23.4468 14.1962 26.4936 14.1962V14.1962ZM6.65713 14.6026H12.3984V31.8773H6.65713V14.6026V14.6026Z" fill="#FCE5D2"/>
</svg>
